<svg width="192" height="192" viewBox="0 0 192 192" fill="none" xmlns="http://www.w3.org/2000/svg">
  <!-- Background -->
  <rect width="192" height="192" rx="24" fill="#1a1a1a"/>
  
  <!-- Film strip background -->
  <rect x="16" y="32" width="160" height="128" rx="8" fill="#2d3748"/>
  
  <!-- Film perforations -->
  <rect x="20" y="40" width="8" height="6" rx="2" fill="#1a1a1a"/>
  <rect x="20" y="52" width="8" height="6" rx="2" fill="#1a1a1a"/>
  <rect x="20" y="64" width="8" height="6" rx="2" fill="#1a1a1a"/>
  <rect x="20" y="76" width="8" height="6" rx="2" fill="#1a1a1a"/>
  <rect x="20" y="88" width="8" height="6" rx="2" fill="#1a1a1a"/>
  <rect x="20" y="100" width="8" height="6" rx="2" fill="#1a1a1a"/>
  <rect x="20" y="112" width="8" height="6" rx="2" fill="#1a1a1a"/>
  <rect x="20" y="124" width="8" height="6" rx="2" fill="#1a1a1a"/>
  <rect x="20" y="136" width="8" height="6" rx="2" fill="#1a1a1a"/>
  <rect x="20" y="148" width="8" height="6" rx="2" fill="#1a1a1a"/>
  
  <rect x="164" y="40" width="8" height="6" rx="2" fill="#1a1a1a"/>
  <rect x="164" y="52" width="8" height="6" rx="2" fill="#1a1a1a"/>
  <rect x="164" y="64" width="8" height="6" rx="2" fill="#1a1a1a"/>
  <rect x="164" y="76" width="8" height="6" rx="2" fill="#1a1a1a"/>
  <rect x="164" y="88" width="8" height="6" rx="2" fill="#1a1a1a"/>
  <rect x="164" y="100" width="8" height="6" rx="2" fill="#1a1a1a"/>
  <rect x="164" y="112" width="8" height="6" rx="2" fill="#1a1a1a"/>
  <rect x="164" y="124" width="8" height="6" rx="2" fill="#1a1a1a"/>
  <rect x="164" y="136" width="8" height="6" rx="2" fill="#1a1a1a"/>
  <rect x="164" y="148" width="8" height="6" rx="2" fill="#1a1a1a"/>
  
  <!-- Main content area -->
  <rect x="36" y="48" width="120" height="96" rx="4" fill="#4a5568"/>
  
  <!-- Film reel icon -->
  <g transform="translate(96, 96)">
    <!-- Outer circle -->
    <circle cx="0" cy="0" r="32" fill="#e50914" stroke="#ffffff" stroke-width="2"/>
    
    <!-- Inner circles -->
    <circle cx="0" cy="0" r="24" fill="none" stroke="#ffffff" stroke-width="1.5"/>
    <circle cx="0" cy="0" r="16" fill="none" stroke="#ffffff" stroke-width="1"/>
    <circle cx="0" cy="0" r="8" fill="#ffffff"/>
    
    <!-- Spokes -->
    <line x1="0" y1="-24" x2="0" y2="-16" stroke="#ffffff" stroke-width="2"/>
    <line x1="0" y1="24" x2="0" y2="16" stroke="#ffffff" stroke-width="2"/>
    <line x1="-24" y1="0" x2="-16" y2="0" stroke="#ffffff" stroke-width="2"/>
    <line x1="24" y1="0" x2="16" y2="0" stroke="#ffffff" stroke-width="2"/>
    
    <!-- Diagonal spokes -->
    <line x1="-17" y1="-17" x2="-11" y2="-11" stroke="#ffffff" stroke-width="1.5"/>
    <line x1="17" y1="17" x2="11" y2="11" stroke="#ffffff" stroke-width="1.5"/>
    <line x1="17" y1="-17" x2="11" y2="-11" stroke="#ffffff" stroke-width="1.5"/>
    <line x1="-17" y1="17" x2="-11" y2="11" stroke="#ffffff" stroke-width="1.5"/>
  </g>
  
  <!-- Decorative stars -->
  <g fill="#f5c518" opacity="0.8">
    <path d="M48 72 L50 78 L56 78 L51 82 L53 88 L48 84 L43 88 L45 82 L40 78 L46 78 Z"/>
    <path d="M144 120 L146 126 L152 126 L147 130 L149 136 L144 132 L139 136 L141 130 L136 126 L142 126 Z"/>
  </g>
  
  <!-- App name -->
  <text x="96" y="180" text-anchor="middle" fill="#ffffff" font-family="Arial, sans-serif" font-size="12" font-weight="600">
    MOVIE CATALOG
  </text>
</svg>

