<svg viewBox="0 0 32 32" xmlns="http://www.w3.org/2000/svg">
  <!-- Black background -->
  <rect width="32" height="32" fill="#000000"/>
  
  <!-- M letter with lower intensity and film perforations -->
  <path d="M3 26 L3 6 L6 6 L11 18 L16 6 L19 6 L19 26 L16 26 L16 12 L12.5 22 L9.5 22 L6 12 L6 26 Z" 
        fill="#6B2C2C"/>
  
  <!-- L letter separated with gap - full intensity with perforations -->
  <path d="M22 6 L22 23 L29 23 L29 26 L19 26 L19 6 L22 6 Z" 
        fill="#9A3F3F"/>
  
  <!-- Film sprocket holes along letter edges -->
  <!-- M letter perforations -->
  <rect x="2" y="8" width="1" height="2" fill="#000000"/>
  <rect x="2" y="12" width="1" height="2" fill="#000000"/>
  <rect x="2" y="16" width="1" height="2" fill="#000000"/>
  <rect x="2" y="20" width="1" height="2" fill="#000000"/>
  <rect x="19" y="8" width="1" height="2" fill="#000000"/>
  <rect x="19" y="12" width="1" height="2" fill="#000000"/>
  <rect x="19" y="16" width="1" height="2" fill="#000000"/>
  <rect x="19" y="20" width="1" height="2" fill="#000000"/>
  
  <!-- L letter perforations -->
  <rect x="18" y="8" width="1" height="2" fill="#000000"/>
  <rect x="18" y="12" width="1" height="2" fill="#000000"/>
  <rect x="18" y="16" width="1" height="2" fill="#000000"/>
  <rect x="18" y="20" width="1" height="2" fill="#000000"/>
  <rect x="29" y="8" width="1" height="2" fill="#000000"/>
  <rect x="29" y="12" width="1" height="2" fill="#000000"/>
  <rect x="29" y="16" width="1" height="2" fill="#000000"/>
  <rect x="29" y="20" width="1" height="2" fill="#000000"/>
</svg>